<svg width="1222" height="774" viewBox="0 0 1222 774" fill="none" xmlns="http://www.w3.org/2000/svg">
<path d="M390.752 637.611L337.189 648.203L351.273 719.424L254.154 738.629L240.07 667.409L76.4387 699.768L50.8217 628.993L204.845 359.39L277.243 345.073L322.057 571.685L381.506 559.928L390.752 637.611ZM161.369 603.462L224.938 590.891L209.457 512.607L161.369 603.462Z" fill="#291536"/>
<path d="M1158.29 658.57L1104.65 648.412L1091.14 719.744L993.867 701.324L1007.37 629.992L843.487 598.958L846.129 523.736L1089.63 331.076L1162.14 344.807L1119.16 571.774L1178.7 583.049L1158.29 658.57ZM958.218 541.298L1021.89 553.354L1036.73 474.947L958.218 541.298Z" fill="#291536"/>
<path d="M375.395 630.651L321.243 641.36L335.677 714.347L248.564 731.574L234.13 658.587L71.0879 690.83L46.4022 624.764L196.668 351.623L261.414 338.819L307.392 571.317L368.018 559.328L375.395 630.651ZM143.172 603.792L220.279 588.544L201.073 491.425L143.172 603.792Z" fill="#0177FF"/>
<path d="M1143.15 648.418L1088.91 638.148L1075.07 711.249L987.823 694.727L1001.67 621.626L838.367 590.703L840.116 520.198L1081.45 322.853L1146.29 335.132L1102.2 567.994L1162.92 579.492L1143.15 648.418ZM937.722 536.849L1014.95 551.472L1033.37 454.201L937.722 536.849Z" fill="#0177FF"/>
<path fill-rule="evenodd" clip-rule="evenodd" d="M462.576 686.341C467.911 684.911 473.394 688.077 474.823 693.412L477.871 704.787C479.301 710.122 476.135 715.605 470.8 717.035C465.466 718.464 459.982 715.298 458.553 709.964L455.505 698.588C454.075 693.253 457.241 687.77 462.576 686.341Z" fill="black"/>
<path fill-rule="evenodd" clip-rule="evenodd" d="M819.576 30.3408C824.911 28.9114 830.394 32.0772 831.823 37.4119L834.871 48.7873C836.301 54.1219 833.135 59.6053 827.8 61.0347C822.466 62.4641 816.982 59.2983 815.553 53.9636L812.505 42.5882C811.075 37.2535 814.241 31.7702 819.576 30.3408Z" fill="black"/>
<path fill-rule="evenodd" clip-rule="evenodd" d="M850.576 66.3408C855.911 64.9114 861.394 68.0772 862.823 73.4119L865.871 84.7873C867.301 90.1219 864.135 95.6053 858.8 97.0347C853.466 98.4641 847.982 95.2983 846.553 89.9636L843.505 78.5882C842.075 73.2535 845.241 67.7702 850.576 66.3408Z" fill="black"/>
<path fill-rule="evenodd" clip-rule="evenodd" d="M762.148 5.34905C766.926 2.57877 773.044 4.20618 775.815 8.98398L789.151 31.984C791.921 36.7618 790.294 42.8807 785.516 45.651C780.738 48.4213 774.619 46.7939 771.849 42.0161L758.513 19.0161C755.743 14.2383 757.37 8.11933 762.148 5.34905Z" fill="black"/>
<path fill-rule="evenodd" clip-rule="evenodd" d="M672.839 163.188C673.84 160.614 676.738 159.339 679.312 160.34C687.217 163.414 694.824 169.996 701.443 178.523C708.115 187.119 714.047 198.028 718.477 210.288C727.324 234.772 730.37 265.198 720.743 294.081C719.87 296.701 717.038 298.117 714.418 297.243C711.799 296.37 710.383 293.539 711.256 290.919C720.028 264.602 717.325 236.528 709.072 213.687C704.952 202.284 699.496 192.324 693.543 184.655C687.537 176.916 681.282 171.836 675.687 169.66C673.113 168.659 671.838 165.761 672.839 163.188Z" fill="#FCFCFC"/>
<path d="M842.851 193.832C842.192 194.49 841.3 194.86 840.369 194.86H363.972C363.46 194.932 362.937 194.886 362.445 194.726C361.953 194.565 361.504 194.294 361.133 193.934C360.761 193.573 360.477 193.133 360.302 192.646C360.127 192.159 360.065 191.638 360.122 191.123V164.625C360.122 131.589 373.246 99.9062 396.606 76.5461C419.966 53.1861 451.649 40.0625 484.685 40.0625H701C712 49.375 734.2 72.2 735 89C736 110 749 142 777 143.5C805 145 827.258 156.975 843.879 177.988V191.35C843.879 192.281 843.509 193.174 842.851 193.832Z" fill="#FFD720"/>
<path d="M816.927 234.605H788.844L722.373 301.077L655.902 234.605H387.639C376.436 234.605 365.693 239.056 357.772 246.977C349.85 254.898 345.4 265.641 345.4 276.844C345.4 288.046 349.85 298.789 357.772 306.71C365.693 314.632 376.436 319.082 387.639 319.082H816.927C828.13 319.082 838.873 314.632 846.794 306.71C854.716 298.789 859.166 288.046 859.166 276.844C859.166 265.641 854.716 254.898 846.794 246.977C838.873 239.056 828.13 234.605 816.927 234.605Z" fill="#F69624"/>
<path d="M360.688 428.922C362.616 460.528 376.509 490.213 399.542 511.942C422.575 533.671 453.019 545.813 484.684 545.898H719.768C751.433 545.813 781.877 533.671 804.91 511.942C827.943 490.213 841.836 460.528 843.765 428.922H360.688Z" fill="#FFD720"/>
<path d="M460.678 191.123V164.625C460.678 131.589 473.802 99.9062 497.162 76.5461C520.522 53.1861 552.205 40.0625 585.241 40.0625H484.685C451.649 40.0625 419.966 53.1861 396.606 76.5461C373.246 99.9062 360.122 131.589 360.122 164.625V191.123C360.065 191.638 360.127 192.159 360.302 192.646C360.477 193.133 360.761 193.573 361.133 193.934C361.504 194.294 361.953 194.565 362.445 194.726C362.937 194.886 363.46 194.932 363.972 194.86H464.189C463.708 194.861 463.232 194.763 462.791 194.573C462.349 194.383 461.952 194.104 461.623 193.753C461.294 193.403 461.04 192.989 460.878 192.536C460.715 192.084 460.647 191.603 460.678 191.123Z" fill="#F69624"/>
<path d="M445.617 276.844C445.647 265.651 450.106 254.924 458.021 247.01C465.936 239.095 476.662 234.635 487.855 234.605H387.639C376.436 234.605 365.693 239.056 357.772 246.977C349.85 254.898 345.4 265.641 345.4 276.844C345.4 288.046 349.85 298.789 357.772 306.71C365.693 314.632 376.436 319.082 387.639 319.082H487.855C476.662 319.052 465.936 314.592 458.021 306.677C450.106 298.763 445.647 288.037 445.617 276.844Z" fill="#FFD720"/>
<path d="M460.904 428.922H360.688C362.616 460.528 376.509 490.213 399.542 511.942C422.575 533.671 453.019 545.813 484.684 545.898H584.901C553.236 545.813 522.792 533.671 499.759 511.942C476.726 490.213 462.833 460.528 460.904 428.922Z" fill="#F69624"/>
<path d="M363.971 210.032H840.368C845.394 210.033 850.215 208.044 853.78 204.501C857.344 200.957 859.362 196.147 859.392 191.122V164.624L828.828 172.5C828.704 174.746 828.512 176.991 828.251 179.231H376.088H375.975C374.198 163.829 375.675 148.226 380.311 133.431C384.946 118.636 392.636 104.979 402.883 93.3436C413.131 81.7086 425.707 72.3548 439.798 65.8877C453.889 59.4206 469.181 55.9842 484.684 55.801H689.5L684 25H484.684C447.663 25.03 412.167 39.7499 385.988 65.9279C359.81 92.106 345.091 127.602 345.061 164.624V191.122C345.061 196.137 347.053 200.947 350.599 204.494C354.146 208.04 358.956 210.032 363.971 210.032Z" fill="#251C1F"/>
<path fill-rule="evenodd" clip-rule="evenodd" d="M688.453 56.9733C679.521 46.6701 677 34.7581 677 25.0005L701 24.9996C701 30.742 702.45 36.48 706.587 41.2517C710.712 46.0093 718.804 51.3017 735.037 53.6206C738.253 54.0801 741.146 55.8242 743.054 58.4542C744.961 61.0843 745.721 64.3754 745.159 67.5755C742.378 83.4125 743.236 104.058 751.898 117.595C755.96 123.942 761.788 128.859 770.458 131.325C779.394 133.867 792.287 134.058 810.613 128.942C816.61 127.268 822.89 130.457 825.076 136.287C827.82 143.602 830.891 149.342 835.672 153.62C840.265 157.73 847.544 161.462 860.497 162.541L858.503 186.459C841.456 185.038 828.905 179.77 819.668 171.505C813.907 166.35 809.884 160.418 806.882 154.548C790.245 158.007 775.976 157.847 763.891 154.409C749.143 150.214 738.645 141.412 731.682 130.531C720.901 113.682 718.807 92.3388 720.081 75.0937C705.959 71.4366 695.578 65.1914 688.453 56.9733Z" fill="#251C1F"/>
<path d="M722.372 301.077L828.817 194.633H615.928L722.372 301.077Z" fill="#FFD720"/>
<path d="M697.573 194.633H615.928L722.372 301.077L763.138 260.311L697.573 194.633Z" fill="#FFD720"/>
<path d="M722.373 316.477C720.273 316.553 718.182 316.19 716.232 315.41C714.281 314.629 712.516 313.45 711.049 311.947L604.604 205.503C602.485 203.301 601.063 200.523 600.517 197.517C599.971 194.51 600.325 191.409 601.535 188.603C602.744 185.797 604.755 183.411 607.316 181.744C609.876 180.076 612.872 179.202 615.928 179.231H828.817C831.873 179.202 834.869 180.076 837.429 181.744C839.99 183.411 842.001 185.797 843.21 188.603C844.42 191.409 844.774 194.51 844.228 197.517C843.682 200.523 842.26 203.301 840.141 205.503L733.696 311.947C732.229 313.45 730.464 314.629 728.513 315.41C726.563 316.19 724.472 316.553 722.373 316.477ZM653.184 210.032L722.373 279.334L791.561 210.032H653.184Z" fill="#251C1F"/>
<path d="M816.928 334.483H387.639C372.352 334.483 357.691 328.411 346.882 317.601C336.073 306.792 330 292.131 330 276.845C330 261.558 336.073 246.897 346.882 236.088C357.691 225.279 372.352 219.206 387.639 219.206H655.902C657.999 219.143 660.087 219.513 662.035 220.293C663.983 221.072 665.75 222.244 667.226 223.736L722.826 279.336L778.426 223.736C779.902 222.244 781.669 221.072 783.617 220.293C785.565 219.513 787.653 219.143 789.75 219.206H816.928C832.214 219.206 846.875 225.279 857.684 236.088C868.494 246.897 874.566 261.558 874.566 276.845C874.566 292.131 868.494 306.792 857.684 317.601C846.875 328.411 832.214 334.483 816.928 334.483ZM741.737 303.682H816.928C824.045 303.682 830.872 300.855 835.905 295.822C840.938 290.789 843.765 283.962 843.765 276.845C843.765 269.727 840.938 262.901 835.905 257.868C830.872 252.835 824.045 250.007 816.928 250.007H795.412L741.737 303.682ZM387.639 250.007C380.521 250.007 373.695 252.835 368.662 257.868C363.629 262.901 360.801 269.727 360.801 276.845C360.801 283.962 363.629 290.789 368.662 295.822C373.695 300.855 380.521 303.682 387.639 303.682H703.689L650.013 250.007H387.639Z" fill="#251C1F"/>
<path d="M782.956 397.897C767.883 398.013 753.323 392.431 742.19 382.27C739.349 379.411 735.97 377.142 732.248 375.594C728.527 374.046 724.536 373.249 720.505 373.249C716.474 373.249 712.483 374.046 708.761 375.594C705.04 377.142 701.661 379.411 698.82 382.27C687.586 392.251 673.081 397.764 658.054 397.764C643.026 397.764 628.521 392.251 617.288 382.27C614.456 379.415 611.086 377.148 607.374 375.602C603.662 374.055 599.68 373.259 595.659 373.259C591.637 373.259 587.656 374.055 583.943 375.602C580.231 377.148 576.862 379.415 574.03 382.27C562.83 392.321 548.313 397.88 533.264 397.88C518.216 397.88 503.698 392.321 492.498 382.27C486.73 376.551 478.936 373.343 470.813 373.343C462.69 373.343 454.896 376.551 449.128 382.27C437.995 392.431 423.434 398.013 408.362 397.897C393.289 398.013 378.729 392.431 367.596 382.27C364.781 379.396 361.414 377.121 357.697 375.583C353.98 374.046 349.989 373.277 345.967 373.324C341.882 373.324 337.965 371.702 335.077 368.814C332.189 365.925 330.566 362.008 330.566 357.924C330.566 353.839 332.189 349.922 335.077 347.034C337.965 344.146 341.882 342.523 345.967 342.523C361.001 342.436 375.515 348.016 386.62 358.15C392.388 363.869 400.182 367.078 408.305 367.078C416.428 367.078 424.222 363.869 429.99 358.15C441.19 348.099 455.708 342.54 470.756 342.54C485.805 342.54 500.323 348.099 511.522 358.15C514.336 361.025 517.704 363.299 521.421 364.837C525.138 366.375 529.128 367.143 533.151 367.096C537.171 367.124 541.155 366.346 544.87 364.81C548.584 363.273 551.954 361.009 554.78 358.15C565.979 348.099 580.497 342.54 595.546 342.54C610.594 342.54 625.112 348.099 636.312 358.15C642.08 363.869 649.874 367.078 657.997 367.078C666.12 367.078 673.914 363.869 679.682 358.15C690.916 348.169 705.421 342.656 720.448 342.656C735.475 342.656 749.981 348.169 761.214 358.15C766.983 363.869 774.777 367.078 782.899 367.078C791.022 367.078 798.816 363.869 804.585 358.15C815.51 347.892 829.912 342.147 844.898 342.07C848.982 342.07 852.899 343.693 855.788 346.581C858.676 349.469 860.298 353.386 860.298 357.471C860.298 361.555 858.676 365.472 855.788 368.361C852.899 371.249 848.982 372.871 844.898 372.871C840.86 372.835 836.856 373.608 833.122 375.144C829.388 376.681 825.999 378.95 823.156 381.817C812.235 392.011 797.894 397.747 782.956 397.897Z" fill="#251C1F"/>
<path d="M719.769 561.527H484.685C449.039 561.525 414.745 547.878 388.843 523.387C362.942 498.897 347.398 465.42 345.401 429.83C345.294 427.746 345.609 425.662 346.327 423.702C347.044 421.742 348.15 419.948 349.577 418.425C351.004 416.903 352.724 415.684 354.633 414.842C356.542 414 358.602 413.551 360.688 413.523H843.766C845.852 413.551 847.912 414 849.821 414.842C851.731 415.684 853.45 416.903 854.878 418.425C856.305 419.948 857.41 421.742 858.128 423.702C858.845 425.662 859.16 427.746 859.053 429.83C857.057 465.42 841.512 498.897 815.611 523.387C789.709 547.878 755.416 561.525 719.769 561.527ZM378.24 443.985C383.383 468.41 396.766 490.325 416.146 506.055C435.526 521.786 459.725 530.376 484.685 530.386H719.769C744.73 530.376 768.928 521.786 788.308 506.055C807.688 490.325 821.071 468.41 826.214 443.985H378.24Z" fill="#251C1F"/>
<path d="M519.901 137.446C519.543 141.931 517.509 146.116 514.204 149.168C510.898 152.221 506.565 153.916 502.066 153.916C497.567 153.916 493.233 152.221 489.927 149.168C486.622 146.116 484.588 141.931 484.23 137.446C484.588 132.961 486.622 128.776 489.927 125.724C493.233 122.672 497.567 120.977 502.066 120.977C506.565 120.977 510.898 122.672 514.204 125.724C517.509 128.776 519.543 132.961 519.901 137.446Z" fill="#251C1F"/>
<path d="M620.004 137.446C620.004 142.162 618.131 146.684 614.797 150.018C611.463 153.352 606.941 155.225 602.226 155.225C597.511 155.225 592.989 153.352 589.654 150.018C586.32 146.684 584.447 142.162 584.447 137.446C584.447 132.731 586.32 128.209 589.654 124.875C592.989 121.541 597.511 119.668 602.226 119.668C606.941 119.668 611.463 121.541 614.797 124.875C618.131 128.209 620.004 132.731 620.004 137.446Z" fill="#251C1F"/>
<path d="M720.221 137.446C719.863 141.931 717.829 146.116 714.524 149.168C711.219 152.221 706.885 153.916 702.386 153.916C697.887 153.916 693.553 152.221 690.248 149.168C686.943 146.116 684.908 141.931 684.551 137.446C684.908 132.961 686.943 128.776 690.248 125.724C693.553 122.672 697.887 120.977 702.386 120.977C706.885 120.977 711.219 122.672 714.524 125.724C717.829 128.776 719.863 132.961 720.221 137.446Z" fill="#251C1F"/>
<path d="M574.596 92.9421C574.238 97.4269 572.204 101.612 568.899 104.664C565.594 107.717 561.26 109.412 556.761 109.412C552.262 109.412 547.928 107.717 544.623 104.664C541.317 101.612 539.283 97.4269 538.926 92.9421C539.283 88.4574 541.317 84.272 544.623 81.2198C547.928 78.1676 552.262 76.4727 556.761 76.4727C561.26 76.4727 565.594 78.1676 568.899 81.2198C572.204 84.272 574.238 88.4574 574.596 92.9421Z" fill="#251C1F"/>
<path d="M674.7 92.9426C674.7 97.6577 672.827 102.18 669.492 105.514C666.158 108.848 661.636 110.721 656.921 110.721C652.206 110.721 647.684 108.848 644.35 105.514C641.016 102.18 639.143 97.6577 639.143 92.9426C639.143 88.2274 641.016 83.7054 644.35 80.3713C647.684 77.0372 652.206 75.1641 656.921 75.1641C661.636 75.1641 666.158 77.0372 669.492 80.3713C672.827 83.7054 674.7 88.2274 674.7 92.9426Z" fill="#251C1F"/>
</svg>
