<svg width="20" height="20" viewBox="0 0 20 20" fill="none" xmlns="http://www.w3.org/2000/svg">
<path d="M2.38461 3.6H17.6154V14.7692H2.38461V3.6Z" stroke="white" stroke-width="1.5" stroke-linecap="round" strokeLinejoin="round"/>
<path d="M12.5385 3.6V14.7692" stroke="white" stroke-width="1.5" stroke-linecap="round" strokeLinejoin="round"/>
<path d="M14.5692 9.69231H15.5846" stroke="white" stroke-width="1.5" stroke-linecap="round" strokeLinejoin="round"/>
<path d="M14.5692 11.7231H15.5846" stroke="white" stroke-width="1.5" stroke-linecap="round" strokeLinejoin="round"/>
<path d="M15.0769 6.9C15.1271 6.9 15.1762 6.91489 15.2179 6.94278C15.2597 6.97068 15.2922 7.01032 15.3114 7.05671C15.3307 7.10309 15.3357 7.15413 15.3259 7.20337C15.3161 7.25261 15.2919 7.29784 15.2564 7.33335C15.2209 7.36885 15.1757 7.39302 15.1264 7.40282C15.0772 7.41261 15.0262 7.40758 14.9798 7.38837C14.9334 7.36916 14.8937 7.33662 14.8659 7.29488C14.838 7.25313 14.8231 7.20405 14.8231 7.15385C14.8231 7.08652 14.8498 7.02196 14.8974 6.97435C14.945 6.92675 15.0096 6.9 15.0769 6.9" stroke="white" stroke-width="1.5" stroke-linecap="round" strokeLinejoin="round"/>
<path d="M3.39999 16.8L5.43076 14.7692" stroke="white" stroke-width="1.5" stroke-linecap="round" strokeLinejoin="round"/>
<path d="M16.6 16.8L14.5692 14.7692" stroke="white" stroke-width="1.5" stroke-linecap="round" strokeLinejoin="round"/>
</svg>
